<?xml version="1.0" encoding="UTF-8"?>
<svg width="186px" height="109px" viewBox="0 0 186 109" version="1.1" xmlns="http://www.w3.org/2000/svg" xmlns:xlink="http://www.w3.org/1999/xlink">
    <!-- Generator: Sketch 55.2 (78181) - https://sketchapp.com -->
    <title>Artboard</title>
    <desc>Created with Sketch.</desc>
    <defs>
        <polygon id="path-1" points="0.8742 0.1454 9.743 0.1454 9.743 13.6134 0.8742 13.6134"></polygon>
        <polygon id="path-3" points="0.2524 0.4496 6.3004 0.4496 6.3004 8.997 0.2524 8.997"></polygon>
        <polygon id="path-5" points="0.1357 0.45 7.5127 0.45 7.5127 8.997 0.1357 8.997"></polygon>
        <polygon id="path-7" points="0.891 0.5449 7.355 0.5449 7.355 8.997 0.891 8.997"></polygon>
    </defs>
    <g id="Artboard" stroke="none" stroke-width="1" fill="none" fill-rule="evenodd">
        <g id="Group-84">
            <path d="M66.7966,0.85 L66.7966,34.588 C66.7966,35.478 66.8406,36.857 66.9266,37.725 C68.2546,51.14 79.6086,61.62 93.4156,61.62 C107.2236,61.62 118.5766,51.14 119.9056,37.725 C119.9916,36.857 120.0356,35.478 120.0356,34.588 L120.0356,0.85 L66.7966,0.85 Z" id="Fill-6" fill="#E62C33"></path>
            <path d="M94.126,44.972 C94.124,44.956 94.133,44.945 94.146,44.942 C94.161,44.938 94.174,44.948 94.177,44.959 C95.019,47.601 96.576,50.034 98.513,52.147 C99.311,51.822 100.168,51.519 101.038,51.189 C97.746,48.31 94.942,44.493 94.126,40.066 C94.124,40.05 94.133,40.039 94.146,40.036 C94.161,40.032 94.174,40.042 94.177,40.052 C95.524,44.279 98.698,47.971 102.337,50.671 C103.337,50.246 104.325,49.753 105.233,49.117 C100.383,46.221 95.277,41.19 94.126,34.947 C94.124,34.931 94.133,34.92 94.146,34.916 C94.161,34.913 94.174,34.923 94.177,34.933 C96.018,40.712 101.275,45.49 106.467,48.102 C107.213,47.38 107.866,46.508 108.373,45.43 C102.839,43.105 95.532,37.287 94.126,29.66 C94.124,29.644 94.133,29.633 94.146,29.63 C94.161,29.626 94.174,29.636 94.177,29.646 C96.313,36.353 103.05,41.711 108.947,43.9 C109.302,42.682 109.503,41.253 109.503,39.559 C102.389,37.383 94.126,29.018 94.126,20.586 L94.126,15.33 L92.707,15.33 L92.707,20.591 C92.704,28.848 83.875,37.557 77.33,39.559 C77.33,41.253 77.531,42.682 77.886,43.9 C83.783,41.711 90.52,36.353 92.655,29.646 C92.659,29.636 92.672,29.626 92.687,29.63 C92.7,29.633 92.709,29.644 92.707,29.66 C91.301,37.287 83.994,43.105 78.46,45.429 C78.967,46.508 79.619,47.38 80.365,48.102 C85.557,45.49 90.815,40.712 92.655,34.933 C92.659,34.923 92.672,34.913 92.687,34.916 C92.7,34.92 92.709,34.931 92.707,34.947 C91.556,41.19 86.45,46.221 81.6,49.117 C82.508,49.753 83.496,50.246 84.495,50.67 C88.135,47.971 91.309,44.279 92.655,40.052 C92.659,40.042 92.672,40.032 92.687,40.036 C92.7,40.039 92.709,40.05 92.707,40.066 C91.891,44.493 89.087,48.31 85.795,51.189 C86.665,51.519 87.522,51.822 88.32,52.146 C90.257,50.034 91.814,47.601 92.655,44.959 C92.659,44.948 92.672,44.938 92.687,44.942 C92.7,44.945 92.709,44.956 92.707,44.972 C92.194,47.756 90.894,50.299 89.181,52.519 C91.224,53.468 92.706,54.718 92.707,57.28 L92.707,57.283 L93.933,57.283 L94.126,57.283 L94.126,57.283 L94.126,57.281 C94.126,54.719 95.608,53.469 97.652,52.519 C95.939,50.299 94.639,47.756 94.126,44.972" id="Fill-8" fill="#FFD600"></path>
            <path d="M111.6566,16.8596 C111.6716,16.0056 110.9796,15.2996 110.1116,15.2846 C109.2426,15.2696 108.5266,15.9506 108.5116,16.8046 C108.4966,17.6596 109.1886,18.3646 110.0576,18.3796 C110.9256,18.3946 111.6416,17.7146 111.6566,16.8596" id="Fill-10" fill="#FFD600"></path>
            <path d="M115.0665,24.9342 C112.6285,30.7722 102.0755,30.9052 100.2125,24.1422 C101.1735,25.7942 102.9845,27.1142 105.7095,27.1612 C111.1175,27.2562 115.5795,22.8302 115.6765,17.2762 C115.6805,17.0132 115.6755,16.7512 115.6605,16.4922 C115.6495,16.2602 115.6275,16.0282 115.5955,15.7962 C115.5065,15.0942 115.3475,14.4152 115.1245,13.7662 C114.5315,11.7852 113.7025,9.7712 113.9945,7.6082 C114.1265,7.6592 114.2695,7.6902 114.4195,7.6932 C115.1015,7.7052 115.6645,7.1612 115.6765,6.4792 C115.6885,5.7972 115.1445,5.2352 114.4625,5.2232 C113.8185,5.2122 113.2515,5.5632 112.8765,6.3402 C112.3335,7.4652 112.7185,9.1392 113.1455,10.3622 C111.3885,8.3692 109.7335,7.0502 106.0605,7.0502 C103.0405,7.0502 97.3725,7.9622 96.1615,4.7702 C95.8215,5.3222 95.6295,5.9692 95.6085,6.6632 C95.5295,9.3552 98.6565,9.7382 98.8185,9.7052 C95.1945,13.1942 99.5475,18.0022 103.0765,15.1912 C103.3855,14.9442 103.7565,14.5302 103.8615,14.1562 C103.6115,14.2452 103.3425,14.2942 103.0625,14.2942 C102.0235,14.2942 101.1405,13.6302 100.8125,12.7032 C100.7245,12.4542 100.6765,12.1862 100.6765,11.9082 C100.6765,11.7692 100.6885,11.6332 100.7115,11.5012 C101.1245,9.5282 103.1775,8.1362 106.6795,8.1622 C102.7685,8.9622 103.1255,12.5462 104.0265,12.7772 C104.0265,12.7772 104.0045,12.5772 104.0055,12.4742 C104.0325,10.9622 105.6555,9.5112 108.0005,9.5112 C110.8005,9.5112 112.5625,11.6762 113.1995,12.8432 C112.5145,12.3242 111.6645,12.0102 110.7395,11.9942 C108.4205,11.9532 106.5065,13.8012 106.4665,16.1212 C106.4515,16.9572 106.8625,18.4502 108.3585,18.6382 C106.6285,16.3122 108.2175,14.2052 110.1175,14.1752 C112.1145,14.1432 113.6165,15.8572 113.6165,17.8542 C113.6165,21.0542 110.3205,23.2722 106.8795,23.2722 C105.4345,23.2722 103.9435,22.8262 102.9925,22.0232 C103.9455,21.7412 104.6485,20.8682 104.6665,19.8212 C104.6895,18.5312 103.6615,17.4432 102.3705,17.4432 C99.5035,17.4432 98.8325,20.4672 98.8325,21.9482 C98.8325,32.9972 114.0335,34.3292 113.1155,39.0202 C113.8255,38.6082 114.0225,37.6162 113.9685,36.9112 C113.7855,34.5142 109.5185,32.1842 108.6035,31.5662 C109.7365,31.9662 116.5615,30.2242 115.0665,24.9342" id="Fill-12" fill="#FFD600"></path>
            <path d="M72.2337,5.2266 C74.2507,5.0546 74.9077,8.2466 72.1167,10.5286 C71.8347,10.7596 71.5627,10.7866 71.5127,10.7786 C71.9407,10.4566 72.8327,8.7766 72.6227,7.5936 C71.8117,7.7056 71.3157,7.2806 71.1697,6.6876 C70.9937,5.9776 71.5327,5.2866 72.2337,5.2266" id="Fill-14" fill="#FFD600"></path>
            <path d="M91.2342,6.6636 C91.2142,5.9686 91.0212,5.3216 90.6812,4.7706 C89.4702,7.9616 83.8022,7.0496 80.7822,7.0496 C75.0802,7.0496 71.0692,11.7226 71.1662,17.2766 C71.2632,22.8306 75.7262,27.2556 81.1332,27.1616 C83.7362,27.1156 85.5042,25.9106 86.4952,24.3626 C86.4952,24.3636 86.4952,24.3636 86.4952,24.3636 C84.8092,30.5616 74.5342,30.8826 71.9142,24.9346 C70.8462,25.9036 71.2442,27.7786 72.2712,28.2596 C71.7292,30.6646 75.6862,32.1726 77.8112,31.4056 C76.3082,32.1566 71.3182,36.0626 73.7272,39.0206 C72.7942,34.2546 88.0332,32.9916 88.0332,22.1806 C88.0332,21.1576 87.6972,17.4436 84.4732,17.4436 C83.1822,17.4436 82.1532,18.5306 82.1762,19.8216 C82.1942,20.8676 82.8972,21.7416 83.8502,22.0226 C82.8992,22.8646 81.4092,23.2716 79.9632,23.2716 C77.4992,23.2716 73.0002,21.9266 73.0002,17.5036 C73.0002,15.5866 74.4932,14.0066 76.4102,13.9726 C77.4662,13.9546 78.4192,14.4096 79.0682,15.1416 C78.7782,14.9346 78.4222,14.8146 78.0382,14.8216 C77.0892,14.8376 76.3342,15.6206 76.3502,16.5686 C76.3672,17.5176 77.1492,18.2736 78.0982,18.2566 C79.6542,18.2296 79.8292,16.5586 79.8492,16.6426 C79.8962,16.3826 79.9192,16.1146 79.9142,15.8406 C79.8752,13.6136 78.0392,11.8406 75.8132,11.8796 C75.1212,11.8916 74.4742,12.0766 73.9112,12.3926 C75.6452,9.7206 77.9292,9.5276 78.8422,9.5116 C81.1872,9.4706 82.8102,10.9616 82.8372,12.4746 C82.8392,12.6116 82.8262,12.7456 82.7982,12.8776 C83.8742,12.2616 83.7382,8.8326 80.1692,8.1886 C83.3332,8.1106 85.7062,9.4746 86.1312,11.5016 C86.1542,11.6336 86.1662,11.7686 86.1662,11.9076 C86.1662,12.1866 86.1182,12.4546 86.0302,12.7036 C85.7022,13.6296 84.8192,14.2936 83.7802,14.2936 C83.5002,14.2936 83.2312,14.2456 82.9812,14.1566 C83.0862,14.5306 83.4572,14.9446 83.7672,15.1906 C87.2952,18.0016 91.6482,13.1946 88.0242,9.7056 C88.1862,9.7376 91.3132,9.3556 91.2342,6.6636" id="Fill-16" fill="#FFD600"></path>
            <path d="M4.7261,88.4214 L0.7631,75.4154 L0.7431,75.3384 C0.7431,75.2104 0.8141,75.1454 0.9551,75.1454 L3.3791,75.1454 C3.5201,75.1454 3.6101,75.2104 3.6491,75.3384 L6.2081,84.7274 C6.2201,84.7654 6.2391,84.7854 6.2651,84.7854 C6.2911,84.7854 6.3101,84.7654 6.3231,84.7274 L8.8431,75.3384 C8.8821,75.2104 8.9711,75.1454 9.1131,75.1454 L11.4791,75.1454 C11.5561,75.1454 11.6141,75.1714 11.6521,75.2224 C11.6911,75.2744 11.6971,75.3384 11.6721,75.4154 L7.6501,88.4214 C7.6121,88.5494 7.5281,88.6134 7.4001,88.6134 L4.9761,88.6134 C4.8481,88.6134 4.7651,88.5494 4.7261,88.4214" id="Fill-18" fill="#000000"></path>
            <path d="M15.056,82.0337 C15.005,82.2007 14.96,82.4057 14.921,82.6497 C14.921,82.7137 14.953,82.7457 15.018,82.7457 L18.346,82.7457 C18.423,82.7457 18.449,82.7137 18.423,82.6497 C18.359,82.2777 18.327,82.0977 18.327,82.1107 C18.211,81.7257 18.009,81.4277 17.721,81.2157 C17.432,81.0047 17.076,80.8987 16.653,80.8987 C15.845,80.8987 15.312,81.2767 15.056,82.0337 M21.213,84.2847 C21.2,84.4387 21.117,84.5157 20.963,84.5157 L15.018,84.5157 C14.941,84.5157 14.915,84.5477 14.941,84.6117 C14.979,84.8687 15.049,85.1247 15.152,85.3817 C15.486,86.0997 16.165,86.4587 17.192,86.4587 C18.012,86.4467 18.66,86.1127 19.135,85.4587 C19.186,85.3817 19.244,85.3427 19.308,85.3427 C19.347,85.3427 19.391,85.3687 19.443,85.4197 L20.828,86.7857 C20.892,86.8507 20.924,86.9077 20.924,86.9587 C20.924,86.9847 20.898,87.0367 20.847,87.1127 C20.424,87.6387 19.879,88.0467 19.212,88.3347 C18.545,88.6237 17.814,88.7677 17.018,88.7677 C15.915,88.7677 14.982,88.5177 14.219,88.0177 C13.456,87.5177 12.907,86.8187 12.574,85.9197 C12.305,85.2787 12.17,84.4387 12.17,83.3997 C12.17,82.6947 12.266,82.0717 12.459,81.5337 C12.754,80.6227 13.27,79.8977 14.007,79.3597 C14.745,78.8207 15.62,78.5517 16.634,78.5517 C17.916,78.5517 18.946,78.9237 19.722,79.6667 C20.498,80.4117 20.969,81.4057 21.136,82.6497 C21.213,83.1367 21.238,83.6817 21.213,84.2847" id="Fill-20" fill="#000000"></path>
            <path d="M24.7239,88.3829 C24.0819,88.1389 23.5849,87.7989 23.2329,87.3629 C22.8799,86.9269 22.7039,86.4329 22.7039,85.8819 L22.7039,85.6889 C22.7039,85.6249 22.7259,85.5709 22.7709,85.5259 C22.8159,85.4809 22.8699,85.4589 22.9349,85.4589 L25.0699,85.4589 C25.1339,85.4589 25.1889,85.4809 25.2339,85.5259 C25.2789,85.5709 25.3009,85.6249 25.3009,85.6889 L25.3009,85.7089 C25.3009,85.9909 25.4579,86.2309 25.7729,86.4299 C26.0869,86.6289 26.4809,86.7279 26.9559,86.7279 C27.3919,86.7279 27.7449,86.6419 28.0139,86.4689 C28.2829,86.2949 28.4179,86.0809 28.4179,85.8239 C28.4179,85.5929 28.3029,85.4199 28.0719,85.3049 C27.8409,85.1889 27.4619,85.0669 26.9369,84.9389 C26.3329,84.7849 25.8589,84.6379 25.5129,84.4969 C24.6919,84.2139 24.0379,83.8679 23.5499,83.4579 C23.0629,83.0469 22.8189,82.4569 22.8189,81.6869 C22.8189,80.7379 23.1879,79.9849 23.9249,79.4269 C24.6629,78.8689 25.6409,78.5899 26.8599,78.5899 C27.6799,78.5899 28.3989,78.7219 29.0149,78.9839 C29.6299,79.2469 30.1079,79.6159 30.4479,80.0909 C30.7879,80.5649 30.9579,81.1039 30.9579,81.7069 C30.9579,81.7709 30.9349,81.8249 30.8899,81.8699 C30.8449,81.9149 30.7909,81.9379 30.7269,81.9379 L28.6679,81.9379 C28.6039,81.9379 28.5499,81.9149 28.5049,81.8699 C28.4599,81.8249 28.4369,81.7709 28.4369,81.7069 C28.4369,81.4249 28.2929,81.1869 28.0039,80.9949 C27.7159,80.8019 27.3339,80.7059 26.8599,80.7059 C26.4359,80.7059 26.0899,80.7829 25.8209,80.9369 C25.5509,81.0909 25.4169,81.3029 25.4169,81.5719 C25.4169,81.8289 25.5479,82.0209 25.8109,82.1489 C26.0739,82.2779 26.5129,82.4119 27.1289,82.5529 C27.2699,82.5919 27.4299,82.6329 27.6099,82.6779 C27.7889,82.7229 27.9819,82.7779 28.1869,82.8419 C29.0979,83.1109 29.8159,83.4579 30.3419,83.8809 C30.8679,84.3039 31.1309,84.9199 31.1309,85.7279 C31.1309,86.6769 30.7559,87.4179 30.0049,87.9499 C29.2549,88.4829 28.2449,88.7489 26.9749,88.7489 C26.1159,88.7489 25.3649,88.6269 24.7239,88.3829" id="Fill-22" fill="#000000"></path>
            <path d="M38.5728,80.8312 C38.5278,80.8762 38.4728,80.8982 38.4088,80.8982 L36.5618,80.8982 C36.4978,80.8982 36.4658,80.9312 36.4658,80.9952 L36.4658,85.0732 C36.4658,85.4972 36.5528,85.8112 36.7258,86.0162 C36.8988,86.2222 37.1778,86.3242 37.5628,86.3242 L38.1978,86.3242 C38.2618,86.3242 38.3158,86.3472 38.3608,86.3912 C38.4058,86.4372 38.4288,86.4912 38.4288,86.5552 L38.4288,88.3832 C38.4288,88.5242 38.3518,88.6072 38.1978,88.6332 C37.6588,88.6582 37.2738,88.6712 37.0428,88.6712 C35.9788,88.6712 35.1828,88.4952 34.6578,88.1422 C34.1318,87.7902 33.8618,87.1262 33.8498,86.1512 L33.8498,80.9952 C33.8498,80.9312 33.8168,80.8982 33.7528,80.8982 L32.6568,80.8982 C32.5918,80.8982 32.5378,80.8762 32.4928,80.8312 C32.4478,80.7862 32.4258,80.7322 32.4258,80.6672 L32.4258,78.9552 C32.4258,78.8912 32.4478,78.8372 32.4928,78.7922 C32.5378,78.7472 32.5918,78.7242 32.6568,78.7242 L33.7528,78.7242 C33.8168,78.7242 33.8498,78.6922 33.8498,78.6282 L33.8498,76.3392 C33.8498,76.2742 33.8718,76.2202 33.9168,76.1752 C33.9618,76.1302 34.0158,76.1082 34.0798,76.1082 L36.2348,76.1082 C36.2988,76.1082 36.3538,76.1302 36.3988,76.1752 C36.4438,76.2202 36.4658,76.2742 36.4658,76.3392 L36.4658,78.6282 C36.4658,78.6922 36.4978,78.7242 36.5618,78.7242 L38.4088,78.7242 C38.4728,78.7242 38.5278,78.7472 38.5728,78.7922 C38.6178,78.8372 38.6398,78.8912 38.6398,78.9552 L38.6398,80.6672 C38.6398,80.7322 38.6178,80.7862 38.5728,80.8312" id="Fill-24" fill="#000000"></path>
            <path d="M46.4148,78.7725 C46.4598,78.8175 46.4818,78.8725 46.4818,78.9365 L46.4818,80.7635 C46.4818,80.8285 46.4598,80.8825 46.4148,80.9275 C46.3698,80.9725 46.3158,80.9945 46.2518,80.9945 L44.3848,80.9945 C44.3208,80.9945 44.2888,81.0265 44.2888,81.0905 L44.2888,88.3825 C44.2888,88.4475 44.2658,88.5015 44.2218,88.5465 C44.1768,88.5915 44.1218,88.6135 44.0578,88.6135 L41.8068,88.6135 C41.7428,88.6135 41.6878,88.5915 41.6438,88.5465 C41.5978,88.5015 41.5758,88.4475 41.5758,88.3825 L41.5758,81.0905 C41.5758,81.0265 41.5438,80.9945 41.4798,80.9945 L40.3448,80.9945 C40.2808,80.9945 40.2258,80.9725 40.1808,80.9275 C40.1358,80.8825 40.1138,80.8285 40.1138,80.7635 L40.1138,78.9365 C40.1138,78.8725 40.1358,78.8175 40.1808,78.7725 C40.2258,78.7275 40.2808,78.7055 40.3448,78.7055 L41.4798,78.7055 C41.5438,78.7055 41.5758,78.6735 41.5758,78.6095 L41.5758,78.1855 C41.5758,77.3905 41.6978,76.7715 41.9418,76.3295 C42.1848,75.8865 42.5798,75.5725 43.1248,75.3865 C43.6698,75.2005 44.4238,75.1205 45.3858,75.1455 L46.1168,75.1455 C46.1808,75.1455 46.2348,75.1685 46.2798,75.2135 C46.3248,75.2585 46.3478,75.3125 46.3478,75.3765 L46.3478,76.9355 C46.3478,76.9995 46.3248,77.0535 46.2798,77.0985 C46.2348,77.1435 46.1808,77.1655 46.1168,77.1655 L45.4818,77.1655 C45.0328,77.1785 44.7218,77.2715 44.5488,77.4445 C44.3758,77.6185 44.2888,77.9355 44.2888,78.3975 L44.2888,78.6095 C44.2888,78.6735 44.3208,78.7055 44.3848,78.7055 L46.2518,78.7055 C46.3158,78.7055 46.3698,78.7275 46.4148,78.7725" id="Fill-26" fill="#000000"></path>
            <path d="M53.5046,86.0549 C53.7996,85.7989 54.0116,85.4459 54.1396,84.9969 C54.2416,84.5859 54.2936,84.1379 54.2936,83.6499 C54.2936,83.1109 54.2416,82.6559 54.1396,82.2839 C53.9986,81.8479 53.7806,81.5079 53.4856,81.2639 C53.1906,81.0209 52.8316,80.8989 52.4076,80.8989 C51.9716,80.8989 51.6096,81.0209 51.3206,81.2639 C51.0326,81.5079 50.8236,81.8479 50.6956,82.2839 C50.5926,82.5919 50.5416,83.0469 50.5416,83.6499 C50.5416,84.2269 50.5866,84.6759 50.6766,84.9969 C50.8046,85.4459 51.0196,85.7989 51.3206,86.0549 C51.6216,86.3119 51.9906,86.4399 52.4276,86.4399 C52.8506,86.4399 53.2096,86.3119 53.5046,86.0549 M49.6566,87.9209 C48.8866,87.3569 48.3606,86.5869 48.0786,85.6119 C47.8996,85.0099 47.8096,84.3559 47.8096,83.6499 C47.8096,82.8929 47.8996,82.2139 48.0786,81.6109 C48.3736,80.6609 48.9066,79.9169 49.6756,79.3789 C50.4456,78.8399 51.3686,78.5709 52.4466,78.5709 C53.4976,78.5709 54.3956,78.8369 55.1396,79.3689 C55.8836,79.9009 56.4096,80.6419 56.7176,81.5909 C56.9226,82.2329 57.0256,82.9059 57.0256,83.6119 C57.0256,84.3039 56.9356,84.9519 56.7566,85.5549 C56.4736,86.5549 55.9506,87.3409 55.1876,87.9119 C54.4246,88.4819 53.5046,88.7679 52.4276,88.7679 C51.3496,88.7679 50.4266,88.4859 49.6566,87.9209" id="Fill-28" fill="#000000"></path>
            <path d="M59.0841,88.5464 C59.0391,88.5014 59.0171,88.4474 59.0171,88.3824 L59.0171,75.3764 C59.0171,75.3124 59.0391,75.2584 59.0841,75.2134 C59.1291,75.1684 59.1831,75.1454 59.2481,75.1454 L61.4991,75.1454 C61.5631,75.1454 61.6171,75.1684 61.6621,75.2134 C61.7071,75.2584 61.7291,75.3124 61.7291,75.3764 L61.7291,88.3824 C61.7291,88.4474 61.7071,88.5014 61.6621,88.5464 C61.6171,88.5914 61.5631,88.6134 61.4991,88.6134 L59.2481,88.6134 C59.1831,88.6134 59.1291,88.5914 59.0841,88.5464" id="Fill-30" fill="#000000"></path>
            <path d="M70.1334,83.6691 C70.1334,82.8101 69.9924,82.1361 69.7104,81.6491 C69.4154,81.1491 68.9854,80.8981 68.4214,80.8981 C67.8184,80.8981 67.3624,81.1491 67.0554,81.6491 C66.7344,82.1491 66.5744,82.8291 66.5744,83.6881 C66.5744,84.4581 66.7084,85.0991 66.9784,85.6121 C67.2984,86.1641 67.7734,86.4401 68.4014,86.4401 C68.9794,86.4401 69.4274,86.1641 69.7484,85.6121 C70.0054,85.1381 70.1334,84.4901 70.1334,83.6691 M70.2204,75.2131 C70.2644,75.1681 70.3194,75.1461 70.3834,75.1461 L72.6344,75.1461 C72.6984,75.1461 72.7534,75.1681 72.7984,75.2131 C72.8434,75.2581 72.8654,75.3121 72.8654,75.3771 L72.8654,88.3831 C72.8654,88.4471 72.8434,88.5021 72.7984,88.5461 C72.7534,88.5911 72.6984,88.6141 72.6344,88.6141 L70.3834,88.6141 C70.3194,88.6141 70.2644,88.5911 70.2204,88.5461 C70.1754,88.5021 70.1524,88.4471 70.1524,88.3831 L70.1524,87.7481 C70.1524,87.7091 70.1394,87.6871 70.1144,87.6811 C70.0884,87.6741 70.0624,87.6841 70.0374,87.7091 C69.4984,88.4151 68.7604,88.7681 67.8244,88.7681 C66.9264,88.7681 66.1534,88.5171 65.5064,88.0171 C64.8584,87.5171 64.3934,86.8311 64.1114,85.9591 C63.8934,85.2921 63.7844,84.5161 63.7844,83.6311 C63.7844,82.7201 63.8994,81.9251 64.1304,81.2451 C64.4254,80.4241 64.8904,79.7731 65.5254,79.2921 C66.1604,78.8111 66.9454,78.5701 67.8824,78.5701 C68.8054,78.5701 69.5244,78.8911 70.0374,79.5321 C70.0624,79.5711 70.0884,79.5841 70.1144,79.5711 C70.1394,79.5581 70.1524,79.5321 70.1524,79.4941 L70.1524,75.3771 C70.1524,75.3121 70.1754,75.2581 70.2204,75.2131" id="Fill-32" fill="#000000"></path>
            <path d="M85.1598,86.0549 C85.4548,85.7989 85.6668,85.4459 85.7948,84.9969 C85.8968,84.5859 85.9488,84.1379 85.9488,83.6499 C85.9488,83.1109 85.8968,82.6559 85.7948,82.2839 C85.6538,81.8479 85.4358,81.5079 85.1408,81.2639 C84.8448,81.0209 84.4868,80.8989 84.0628,80.8989 C83.6268,80.8989 83.2648,81.0209 82.9758,81.2639 C82.6878,81.5079 82.4788,81.8479 82.3508,82.2839 C82.2478,82.5919 82.1968,83.0469 82.1968,83.6499 C82.1968,84.2269 82.2418,84.6759 82.3318,84.9969 C82.4598,85.4459 82.6748,85.7989 82.9758,86.0549 C83.2768,86.3119 83.6458,86.4399 84.0828,86.4399 C84.5058,86.4399 84.8648,86.3119 85.1598,86.0549 M81.3118,87.9209 C80.5418,87.3569 80.0158,86.5869 79.7338,85.6119 C79.5538,85.0099 79.4648,84.3559 79.4648,83.6499 C79.4648,82.8929 79.5538,82.2139 79.7338,81.6109 C80.0288,80.6609 80.5618,79.9169 81.3308,79.3789 C82.1008,78.8399 83.0238,78.5709 84.1018,78.5709 C85.1528,78.5709 86.0508,78.8369 86.7948,79.3689 C87.5388,79.9009 88.0648,80.6419 88.3728,81.5909 C88.5778,82.2329 88.6808,82.9059 88.6808,83.6119 C88.6808,84.3039 88.5908,84.9519 88.4118,85.5549 C88.1288,86.5549 87.6058,87.3409 86.8428,87.9119 C86.0798,88.4819 85.1598,88.7679 84.0828,88.7679 C83.0048,88.7679 82.0818,88.4859 81.3118,87.9209" id="Fill-34" fill="#000000"></path>
            <path d="M96.6768,83.5922 C96.6768,83.1952 96.6638,82.8872 96.6388,82.6682 C96.6128,82.4512 96.5678,82.2452 96.5038,82.0532 C96.3878,81.7072 96.1958,81.4282 95.9268,81.2162 C95.6568,81.0042 95.3238,80.8982 94.9258,80.8982 C94.5408,80.8982 94.2138,81.0042 93.9448,81.2162 C93.6758,81.4282 93.4758,81.7072 93.3488,82.0532 C93.1688,82.4382 93.0788,82.9572 93.0788,83.6112 C93.0788,84.3302 93.1558,84.8432 93.3098,85.1502 C93.4248,85.4972 93.6268,85.7762 93.9158,85.9872 C94.2048,86.1992 94.5478,86.3052 94.9448,86.3052 C95.3558,86.3052 95.6958,86.1992 95.9648,85.9872 C96.2338,85.7762 96.4198,85.5032 96.5228,85.1702 C96.6258,84.7852 96.6768,84.2592 96.6768,83.5922 M96.7438,78.7922 C96.7888,78.7472 96.8438,78.7242 96.9078,78.7242 L99.1588,78.7242 C99.2228,78.7242 99.2768,78.7472 99.3228,78.7922 C99.3668,78.8372 99.3898,78.8912 99.3898,78.9552 L99.3898,87.7292 C99.3898,89.4092 98.9058,90.6082 97.9368,91.3262 C96.9688,92.0452 95.7208,92.4042 94.1948,92.4042 C93.7458,92.4042 93.2458,92.3722 92.6938,92.3082 C92.5658,92.2952 92.5018,92.2122 92.5018,92.0582 L92.5788,90.0762 C92.5788,89.9092 92.6678,89.8382 92.8478,89.8642 C93.3098,89.9412 93.7328,89.9802 94.1178,89.9802 C94.9388,89.9802 95.5708,89.8002 96.0128,89.4412 C96.4558,89.0822 96.6768,88.5052 96.6768,87.7092 C96.6768,87.6712 96.6638,87.6492 96.6388,87.6422 C96.6128,87.6362 96.5868,87.6452 96.5618,87.6712 C96.0738,88.1972 95.3618,88.4602 94.4258,88.4602 C93.5918,88.4602 92.8258,88.2582 92.1268,87.8542 C91.4268,87.4502 90.9308,86.7992 90.6358,85.9012 C90.4428,85.3112 90.3468,84.5482 90.3468,83.6112 C90.3468,82.6112 90.4628,81.7962 90.6928,81.1682 C90.9628,80.3852 91.4178,79.7572 92.0588,79.2822 C92.7008,78.8082 93.4448,78.5702 94.2908,78.5702 C95.2788,78.5702 96.0348,78.8662 96.5618,79.4552 C96.5868,79.4812 96.6128,79.4912 96.6388,79.4842 C96.6638,79.4782 96.6768,79.4552 96.6768,79.4172 L96.6768,78.9552 C96.6768,78.8912 96.6988,78.8372 96.7438,78.7922" id="Fill-36" fill="#000000"></path>
            <path d="M115.7724,75.2131 C115.8174,75.2581 115.8394,75.3121 115.8394,75.3771 L115.8394,77.2621 C115.8394,77.3261 115.8174,77.3811 115.7724,77.4261 C115.7274,77.4711 115.6724,77.4931 115.6084,77.4931 L112.1644,77.4931 C112.1004,77.4931 112.0684,77.5251 112.0684,77.5891 L112.0684,88.3831 C112.0684,88.4471 112.0464,88.5021 112.0014,88.5461 C111.9564,88.5911 111.9014,88.6141 111.8374,88.6141 L109.5864,88.6141 C109.5224,88.6141 109.4684,88.5911 109.4234,88.5461 C109.3784,88.5021 109.3554,88.4471 109.3554,88.3831 L109.3554,77.5891 C109.3554,77.5251 109.3234,77.4931 109.2594,77.4931 L105.9114,77.4931 C105.8474,77.4931 105.7934,77.4711 105.7484,77.4261 C105.7034,77.3811 105.6814,77.3261 105.6814,77.2621 L105.6814,75.3771 C105.6814,75.3121 105.7034,75.2581 105.7484,75.2131 C105.7934,75.1681 105.8474,75.1461 105.9114,75.1461 L115.6084,75.1461 C115.6724,75.1461 115.7274,75.1681 115.7724,75.2131" id="Fill-38" fill="#000000"></path>
            <path d="M118.3273,82.0337 C118.2763,82.2007 118.2313,82.4057 118.1923,82.6497 C118.1923,82.7137 118.2243,82.7457 118.2883,82.7457 L121.6173,82.7457 C121.6943,82.7457 121.7203,82.7137 121.6943,82.6497 C121.6303,82.2777 121.5983,82.0977 121.5983,82.1107 C121.4823,81.7257 121.2803,81.4277 120.9923,81.2157 C120.7033,81.0047 120.3473,80.8987 119.9243,80.8987 C119.1163,80.8987 118.5833,81.2767 118.3273,82.0337 M124.4843,84.2847 C124.4713,84.4387 124.3883,84.5157 124.2343,84.5157 L118.2883,84.5157 C118.2123,84.5157 118.1863,84.5477 118.2123,84.6117 C118.2503,84.8687 118.3203,85.1247 118.4233,85.3817 C118.7573,86.0997 119.4363,86.4587 120.4633,86.4587 C121.2833,86.4467 121.9313,86.1127 122.4063,85.4587 C122.4573,85.3817 122.5153,85.3427 122.5793,85.3427 C122.6183,85.3427 122.6623,85.3687 122.7143,85.4197 L124.0993,86.7857 C124.1633,86.8507 124.1953,86.9077 124.1953,86.9587 C124.1953,86.9847 124.1693,87.0367 124.1183,87.1127 C123.6953,87.6387 123.1503,88.0467 122.4833,88.3347 C121.8163,88.6237 121.0853,88.7677 120.2893,88.7677 C119.1863,88.7677 118.2533,88.5177 117.4903,88.0177 C116.7273,87.5177 116.1783,86.8187 115.8453,85.9197 C115.5763,85.2787 115.4413,84.4387 115.4413,83.3997 C115.4413,82.6947 115.5373,82.0717 115.7303,81.5337 C116.0243,80.6227 116.5413,79.8977 117.2783,79.3597 C118.0163,78.8207 118.8913,78.5517 119.9053,78.5517 C121.1873,78.5517 122.2163,78.9237 122.9933,79.6667 C123.7693,80.4117 124.2403,81.4057 124.4073,82.6497 C124.4843,83.1367 124.5093,83.6817 124.4843,84.2847" id="Fill-40" fill="#000000"></path>
            <path d="M126.4944,88.5464 C126.4494,88.5014 126.4274,88.4474 126.4274,88.3824 L126.4274,75.3764 C126.4274,75.3124 126.4494,75.2584 126.4944,75.2134 C126.5394,75.1684 126.5934,75.1454 126.6584,75.1454 L128.9094,75.1454 C128.9734,75.1454 129.0274,75.1684 129.0724,75.2134 C129.1174,75.2584 129.1394,75.3124 129.1394,75.3764 L129.1394,88.3824 C129.1394,88.4474 129.1174,88.5014 129.0724,88.5464 C129.0274,88.5914 128.9734,88.6134 128.9094,88.6134 L126.6584,88.6134 C126.5934,88.6134 126.5394,88.5914 126.4944,88.5464" id="Fill-42" fill="#000000"></path>
            <path d="M134.0575,82.0337 C134.0065,82.2007 133.9615,82.4057 133.9225,82.6497 C133.9225,82.7137 133.9545,82.7457 134.0195,82.7457 L137.3475,82.7457 C137.4245,82.7457 137.4505,82.7137 137.4245,82.6497 C137.3605,82.2777 137.3285,82.0977 137.3285,82.1107 C137.2125,81.7257 137.0105,81.4277 136.7225,81.2157 C136.4335,81.0047 136.0775,80.8987 135.6545,80.8987 C134.8465,80.8987 134.3135,81.2767 134.0575,82.0337 M140.2145,84.2847 C140.2015,84.4387 140.1185,84.5157 139.9645,84.5157 L134.0195,84.5157 C133.9425,84.5157 133.9165,84.5477 133.9425,84.6117 C133.9805,84.8687 134.0505,85.1247 134.1535,85.3817 C134.4875,86.0997 135.1665,86.4587 136.1935,86.4587 C137.0135,86.4467 137.6615,86.1127 138.1365,85.4587 C138.1875,85.3817 138.2455,85.3427 138.3095,85.3427 C138.3485,85.3427 138.3925,85.3687 138.4445,85.4197 L139.8295,86.7857 C139.8935,86.8507 139.9255,86.9077 139.9255,86.9587 C139.9255,86.9847 139.8995,87.0367 139.8485,87.1127 C139.4255,87.6387 138.8805,88.0467 138.2135,88.3347 C137.5465,88.6237 136.8155,88.7677 136.0195,88.7677 C134.9165,88.7677 133.9835,88.5177 133.2205,88.0177 C132.4575,87.5177 131.9085,86.8187 131.5755,85.9197 C131.3065,85.2787 131.1715,84.4387 131.1715,83.3997 C131.1715,82.6947 131.2675,82.0717 131.4605,81.5337 C131.7555,80.6227 132.2715,79.8977 133.0085,79.3597 C133.7465,78.8207 134.6215,78.5517 135.6355,78.5517 C136.9175,78.5517 137.9465,78.9237 138.7235,79.6667 C139.4995,80.4117 139.9705,81.4057 140.1375,82.6497 C140.2145,83.1367 140.2395,83.6817 140.2145,84.2847" id="Fill-44" fill="#000000"></path>
            <path d="M155.4714,79.4748 C156.0354,80.0778 156.3184,80.9248 156.3184,82.0148 L156.3184,88.3828 C156.3184,88.4478 156.2954,88.5018 156.2504,88.5468 C156.2054,88.5918 156.1514,88.6138 156.0874,88.6138 L153.8364,88.6138 C153.7714,88.6138 153.7174,88.5918 153.6724,88.5468 C153.6274,88.5018 153.6054,88.4478 153.6054,88.3828 L153.6054,82.6108 C153.6054,82.0848 153.4704,81.6678 153.2014,81.3598 C152.9314,81.0528 152.5724,80.8988 152.1234,80.8988 C151.6744,80.8988 151.3094,81.0528 151.0274,81.3598 C150.7444,81.6678 150.6034,82.0788 150.6034,82.5918 L150.6034,88.3828 C150.6034,88.4478 150.5814,88.5018 150.5364,88.5468 C150.4914,88.5918 150.4364,88.6138 150.3724,88.6138 L148.1414,88.6138 C148.0764,88.6138 148.0224,88.5918 147.9774,88.5468 C147.9324,88.5018 147.9104,88.4478 147.9104,88.3828 L147.9104,82.6108 C147.9104,82.0978 147.7684,81.6848 147.4864,81.3698 C147.2044,81.0558 146.8384,80.8988 146.3904,80.8988 C145.9794,80.8988 145.6364,81.0208 145.3604,81.2638 C145.0844,81.5078 144.9214,81.8478 144.8704,82.2838 L144.8704,88.3828 C144.8704,88.4478 144.8474,88.5018 144.8024,88.5468 C144.7574,88.5918 144.7034,88.6138 144.6394,88.6138 L142.3884,88.6138 C142.3234,88.6138 142.2694,88.5918 142.2244,88.5468 C142.1794,88.5018 142.1574,88.4478 142.1574,88.3828 L142.1574,78.9558 C142.1574,78.8918 142.1794,78.8368 142.2244,78.7918 C142.2694,78.7468 142.3234,78.7248 142.3884,78.7248 L144.6394,78.7248 C144.7034,78.7248 144.7574,78.7468 144.8024,78.7918 C144.8474,78.8368 144.8704,78.8918 144.8704,78.9558 L144.8704,79.7058 C144.8704,79.7438 144.8824,79.7698 144.9084,79.7828 C144.9344,79.7958 144.9594,79.7828 144.9854,79.7438 C145.5114,78.9618 146.3254,78.5708 147.4294,78.5708 C148.0704,78.5708 148.6314,78.7048 149.1124,78.9748 C149.5934,79.2438 149.9624,79.6288 150.2184,80.1288 C150.2574,80.2058 150.3024,80.2058 150.3534,80.1288 C150.6354,79.6028 151.0174,79.2118 151.4984,78.9558 C151.9794,78.6988 152.5214,78.5708 153.1244,78.5708 C154.1244,78.5708 154.9064,78.8718 155.4714,79.4748" id="Fill-46" fill="#000000"></path>
            <path d="M163.604,86.3051 C163.989,86.0101 164.181,85.6311 164.181,85.1701 L164.181,84.4771 C164.181,84.4131 164.149,84.3811 164.085,84.3811 L162.7,84.3811 C162.122,84.3811 161.67,84.4901 161.343,84.7081 C161.016,84.9261 160.853,85.2341 160.853,85.6311 C160.853,85.9781 160.974,86.2511 161.218,86.4491 C161.462,86.6481 161.789,86.7481 162.199,86.7481 C162.751,86.7481 163.219,86.6001 163.604,86.3051 M164.816,79.0031 C165.47,79.2921 165.98,79.6861 166.346,80.1871 C166.711,80.6871 166.894,81.2451 166.894,81.8611 L166.894,88.3831 C166.894,88.4471 166.871,88.5021 166.827,88.5461 C166.782,88.5911 166.727,88.6141 166.663,88.6141 L164.412,88.6141 C164.348,88.6141 164.293,88.5911 164.249,88.5461 C164.203,88.5021 164.181,88.4471 164.181,88.3831 L164.181,87.7481 C164.181,87.7091 164.168,87.6841 164.143,87.6711 C164.117,87.6581 164.091,87.6711 164.066,87.7091 C163.527,88.4151 162.661,88.7681 161.468,88.7681 C160.468,88.7681 159.66,88.5241 159.044,88.0371 C158.428,87.5491 158.121,86.8311 158.121,85.8821 C158.121,84.8941 158.467,84.1281 159.16,83.5821 C159.852,83.0371 160.84,82.7651 162.122,82.7651 L164.085,82.7651 C164.149,82.7651 164.181,82.7331 164.181,82.6691 L164.181,82.2451 C164.181,81.8221 164.053,81.4921 163.796,81.2541 C163.54,81.0171 163.155,80.8991 162.642,80.8991 C162.244,80.8991 161.914,80.9691 161.651,81.1101 C161.388,81.2511 161.218,81.4501 161.141,81.7071 C161.103,81.8481 161.019,81.9121 160.891,81.8991 L158.563,81.5911 C158.409,81.5661 158.338,81.5081 158.351,81.4181 C158.403,80.8791 158.618,80.3921 158.996,79.9561 C159.374,79.5201 159.875,79.1801 160.497,78.9361 C161.119,78.6931 161.815,78.5711 162.584,78.5711 C163.418,78.5711 164.162,78.7151 164.816,79.0031" id="Fill-48" fill="#000000"></path>
            <path d="M175.2308,78.8591 C175.3328,78.9101 175.3718,79.0071 175.3458,79.1481 L174.9418,81.3411 C174.9288,81.4951 174.8398,81.5401 174.6728,81.4761 C174.4808,81.4121 174.2558,81.3791 173.9998,81.3791 C173.8968,81.3791 173.7558,81.3921 173.5758,81.4181 C173.1148,81.4561 172.7228,81.6261 172.4028,81.9281 C172.0818,82.2291 171.9218,82.6301 171.9218,83.1301 L171.9218,88.3831 C171.9218,88.4471 171.8988,88.5021 171.8538,88.5461 C171.8088,88.5911 171.7548,88.6141 171.6908,88.6141 L169.4398,88.6141 C169.3748,88.6141 169.3208,88.5911 169.2758,88.5461 C169.2308,88.5021 169.2088,88.4471 169.2088,88.3831 L169.2088,78.9551 C169.2088,78.8911 169.2308,78.8371 169.2758,78.7921 C169.3208,78.7471 169.3748,78.7241 169.4398,78.7241 L171.6908,78.7241 C171.7548,78.7241 171.8088,78.7471 171.8538,78.7921 C171.8988,78.8371 171.9218,78.8911 171.9218,78.9551 L171.9218,79.6861 C171.9218,79.7251 171.9338,79.7511 171.9598,79.7631 C171.9858,79.7761 172.0048,79.7701 172.0178,79.7441 C172.5438,78.9741 173.2488,78.5901 174.1338,78.5901 C174.5958,78.5901 174.9618,78.6791 175.2308,78.8591" id="Fill-50" fill="#000000"></path>
            <g id="Group-54" transform="translate(176.000000, 75.000000)">
                <mask id="mask-2" fill="white">
                    <use xlink:href="#path-1"></use>
                </mask>
                <g id="Clip-53"></g>
                <path d="M0.9412,13.5464 C0.8962,13.5014 0.8742,13.4474 0.8742,13.3824 L0.8742,0.3764 C0.8742,0.3124 0.8962,0.2584 0.9412,0.2134 C0.9862,0.1684 1.0402,0.1454 1.1042,0.1454 L3.3562,0.1454 C3.4202,0.1454 3.4742,0.1684 3.5192,0.2134 C3.5642,0.2584 3.5862,0.3124 3.5862,0.3764 L3.5862,6.8604 C3.5862,6.8994 3.5992,6.9214 3.6252,6.9274 C3.6502,6.9344 3.6762,6.9244 3.7022,6.8994 L6.3182,3.8594 C6.4082,3.7694 6.5042,3.7244 6.6072,3.7244 L9.1662,3.7244 C9.2942,3.7244 9.3582,3.7694 9.3582,3.8594 C9.3582,3.8974 9.3392,3.9484 9.3012,4.0134 L6.8572,7.1104 C6.8312,7.1624 6.8252,7.2064 6.8382,7.2454 L9.7052,13.3444 C9.7302,13.3954 9.7432,13.4344 9.7432,13.4594 C9.7432,13.5624 9.6732,13.6134 9.5322,13.6134 L7.1652,13.6134 C7.0372,13.6134 6.9472,13.5564 6.8962,13.4404 L4.9912,8.9384 C4.9782,8.9134 4.9552,8.8974 4.9242,8.8904 C4.8912,8.8844 4.8692,8.8934 4.8562,8.9194 L3.6252,10.4584 C3.5992,10.5094 3.5862,10.5484 3.5862,10.5734 L3.5862,13.3824 C3.5862,13.4474 3.5642,13.5014 3.5192,13.5464 C3.4742,13.5914 3.4202,13.6134 3.3562,13.6134 L1.1042,13.6134 C1.0402,13.6134 0.9862,13.5914 0.9412,13.5464" id="Fill-52" fill="#000000" mask="url(#mask-2)"></path>
            </g>
            <polygon id="Fill-55" fill="#000000" points="38.4419 108.9026 38.4419 100.5446 43.4879 100.5446 43.4879 101.5406 39.5909 101.5406 39.5909 104.1606 43.2619 104.1606 43.2619 105.1566 39.5909 105.1566 39.5909 108.9026"></polygon>
            <polygon id="Fill-57" fill="#000000" points="52.601 100.5446 49.436 105.0026 49.436 108.9026 48.276 108.9026 48.276 105.0026 45.111 100.5446 46.44 100.5446 48.862 103.9946 51.283 100.5446"></polygon>
            <polygon id="Fill-59" fill="#000000" points="54.4772 108.9026 54.4772 100.5446 55.6372 100.5446 55.6372 107.8826 59.4892 107.8826 59.4892 108.9026"></polygon>
            <polygon id="Fill-61" fill="#000000" points="68.124 108.9026 66.671 108.9026 62.763 104.9666 62.763 108.9026 61.603 108.9026 61.603 100.5446 62.763 100.5446 62.763 104.3506 66.502 100.5446 67.933 100.5446 63.923 104.5876"></polygon>
            <polygon id="Fill-63" fill="#000000" points="70.0408 108.9026 70.0408 100.5446 75.1988 100.5446 75.1988 101.5286 71.1788 101.5286 71.1788 104.1606 74.9738 104.1606 74.9738 105.1566 71.1788 105.1566 71.1788 107.9186 75.1988 107.9186 75.1988 108.9026"></polygon>
            <g id="Group-67" transform="translate(77.000000, 100.000000)">
                <mask id="mask-4" fill="white">
                    <use xlink:href="#path-3"></use>
                </mask>
                <g id="Clip-66"></g>
                <path d="M1.5754,8.7366 C1.0614,8.5626 0.6194,8.3056 0.2524,7.9656 L0.6684,7.0646 C1.0594,7.3966 1.4624,7.6356 1.8794,7.7826 C2.2964,7.9286 2.7634,8.0016 3.2814,8.0016 C3.8744,8.0016 4.3324,7.8846 4.6554,7.6516 C4.9784,7.4186 5.1404,7.0886 5.1404,6.6616 C5.1404,6.2986 4.9894,6.0276 4.6894,5.8496 C4.3894,5.6716 3.9084,5.5046 3.2474,5.3456 C2.6174,5.2036 2.0994,5.0416 1.6934,4.8596 C1.2884,4.6786 0.9714,4.4316 0.7424,4.1186 C0.5134,3.8066 0.3984,3.4096 0.3984,2.9276 C0.3984,2.4376 0.5204,2.0066 0.7644,1.6356 C1.0084,1.2636 1.3554,0.9736 1.8064,0.7636 C2.2564,0.5546 2.7784,0.4496 3.3714,0.4496 C3.9274,0.4496 4.4514,0.5386 4.9424,0.7166 C5.4344,0.8946 5.8384,1.1496 6.1534,1.4816 L5.7484,2.3826 C5.3804,2.0666 5.0034,1.8306 4.6164,1.6766 C4.2294,1.5226 3.8184,1.4456 3.3834,1.4456 C2.8124,1.4456 2.3634,1.5706 2.0374,1.8196 C1.7104,2.0676 1.5474,2.4136 1.5474,2.8566 C1.5474,3.2356 1.6894,3.5226 1.9754,3.7156 C2.2604,3.9096 2.7184,4.0856 3.3494,4.2436 C4.0094,4.4016 4.5444,4.5656 4.9544,4.7356 C5.3634,4.9056 5.6904,5.1386 5.9344,5.4346 C6.1784,5.7316 6.3004,6.1166 6.3004,6.5906 C6.3004,7.0726 6.1784,7.4956 5.9344,7.8596 C5.6904,8.2226 5.3404,8.5036 4.8864,8.7006 C4.4324,8.8986 3.8934,8.9976 3.2704,8.9976 C2.6544,8.9976 2.0894,8.9106 1.5754,8.7366" id="Fill-65" fill="#000000" mask="url(#mask-4)"></path>
            </g>
            <polygon id="Fill-68" fill="#000000" points="92.2335 108.9026 90.7805 108.9026 86.8725 104.9666 86.8725 108.9026 85.7125 108.9026 85.7125 100.5446 86.8725 100.5446 86.8725 104.3506 90.6115 100.5446 92.0415 100.5446 88.0325 104.5876"></polygon>
            <g id="Group-72" transform="translate(93.000000, 100.000000)">
                <mask id="mask-6" fill="white">
                    <use xlink:href="#path-5"></use>
                </mask>
                <g id="Clip-71"></g>
                <path d="M5.6767,7.148 C6.1197,6.579 6.3407,5.769 6.3407,4.718 C6.3407,3.667 6.1217,2.858 5.6827,2.293 C5.2427,1.728 4.6217,1.446 3.8187,1.446 C3.0297,1.446 2.4167,1.728 1.9767,2.293 C1.5377,2.858 1.3177,3.667 1.3177,4.718 C1.3177,5.769 1.5377,6.579 1.9767,7.148 C2.4167,7.717 3.0297,8.002 3.8187,8.002 C4.6137,8.002 5.2337,7.717 5.6767,7.148 M1.8647,8.476 C1.3127,8.128 0.8867,7.634 0.5857,6.994 C0.2857,6.354 0.1357,5.599 0.1357,4.729 C0.1357,3.852 0.2837,3.092 0.5807,2.447 C0.8767,1.803 1.3027,1.309 1.8587,0.965 C2.4147,0.622 3.0677,0.45 3.8187,0.45 C4.5767,0.45 5.2337,0.622 5.7897,0.965 C6.3447,1.309 6.7707,1.803 7.0677,2.447 C7.3637,3.092 7.5127,3.848 7.5127,4.718 C7.5127,5.587 7.3637,6.344 7.0677,6.988 C6.7707,7.632 6.3447,8.128 5.7897,8.476 C5.2337,8.824 4.5767,8.997 3.8187,8.997 C3.0677,8.997 2.4167,8.824 1.8647,8.476" id="Fill-70" fill="#000000" mask="url(#mask-6)"></path>
            </g>
            <polygon id="Fill-73" fill="#000000" points="109.7038 100.5446 110.6278 100.5446 110.6278 108.9026 109.5798 108.9026 109.5908 102.8566 107.2258 107.5626 106.4378 107.5626 104.0608 102.9156 104.0728 108.9026 103.0248 108.9026 103.0248 100.5446 103.9598 100.5446 106.8428 106.3296"></polygon>
            <polygon id="Fill-75" fill="#000000" points="120.1631 100.5446 121.0871 100.5446 121.0871 108.9026 120.0391 108.9026 120.0501 102.8566 117.6851 107.5626 116.8971 107.5626 114.5201 102.9156 114.5321 108.9026 113.4841 108.9026 113.4841 100.5446 114.4191 100.5446 117.3021 106.3296"></polygon>
            <g id="Group-79" transform="translate(123.000000, 100.000000)">
                <mask id="mask-8" fill="white">
                    <use xlink:href="#path-7"></use>
                </mask>
                <g id="Clip-78"></g>
                <path d="M1.713,8.1319 C1.165,7.5549 0.891,6.7059 0.891,5.5829 L0.891,0.5449 L2.04,0.5449 L2.04,5.6659 C2.04,6.4329 2.214,7.0139 2.563,7.4089 C2.912,7.8039 3.432,8.0019 4.123,8.0019 C4.806,8.0019 5.324,7.8039 5.677,7.4089 C6.03,7.0139 6.207,6.4329 6.207,5.6659 L6.207,0.5449 L7.355,0.5449 L7.355,5.5829 C7.355,6.6979 7.08,7.5449 6.528,8.1259 C5.976,8.7069 5.174,8.9979 4.123,8.9979 C3.064,8.9979 2.261,8.7089 1.713,8.1319" id="Fill-77" fill="#000000" mask="url(#mask-8)"></path>
            </g>
            <polygon id="Fill-80" fill="#000000" points="138.5837 100.5446 139.6767 100.5446 139.6767 108.9026 138.7867 108.9026 134.2477 102.5956 134.2477 108.9026 133.1547 108.9026 133.1547 100.5446 134.0337 100.5446 138.5837 106.8636"></polygon>
            <polygon id="Fill-82" fill="#000000" points="142.5233 108.9026 142.5233 100.5446 147.6813 100.5446 147.6813 101.5286 143.6613 101.5286 143.6613 104.1606 147.4563 104.1606 147.4563 105.1566 143.6613 105.1566 143.6613 107.9186 147.6813 107.9186 147.6813 108.9026"></polygon>
        </g>
    </g>
</svg>